<svg xmlns="http://www.w3.org/2000/svg" width="800" height="800" class="icon" viewBox="0 -43.5 1111 1111"><path fill="#0c92f2" d="m378.88 248.686 129.463 162.377 9.508 11.703v15.36l1.463 155.063v16.091l-10.24 12.434L361.326 803.84c-2.926 3.657-7.315 16.091-6.583 21.211v2.926l2.926 43.886-87.772 5.851-2.926-43.885v-2.926c-1.462-27.063 8.778-61.44 26.332-82.652L441.05 566.126l-9.508 27.794-1.463-155.063 9.509 27.063-148.48-185.783-24.869-30.72h112.64zm386.926 526.628L636.343 612.937l-9.509-11.703v-15.36l-1.463-155.063V414.72l10.24-12.434L783.36 220.16c2.926-3.657 7.314-16.091 6.583-21.211v-2.926l-2.926-43.886 87.772-5.851 2.925 43.885v2.926c1.463 27.063-8.777 61.44-26.331 82.652L703.634 457.874l9.509-27.794 1.463 155.063-9.509-27.063 148.48 185.783 24.869 30.72h-112.64z"/><path fill="#fc830a" d="m577.829 680.229 80.457 102.4H497.37z"/><path fill="#61b6f2" d="m577.829 343.771 80.457-102.4H497.37z"/><path fill="#0c92f2" d="M249.417 65.829H988.16S983.04 153.6 878.446 153.6h-716.8s7.314-87.771 87.771-87.771m0 797.257H988.16s-5.12 87.771-109.714 87.771h-716.8s7.314-87.771 87.771-87.771"/></svg>